<svg xmlns="http://www.w3.org/2000/svg" viewBox="0 0 256 256" role="img" aria-labelledby="title desc">
  <title id="title">Veil primary aperture mark</title>
  <desc id="desc">A diamond-shaped aperture mark with a central V-shaped reveal and restrained signal facets.</desc>
  <path d="M128 12 244 128 128 244 12 128Z" fill="#101318"/>
  <path d="M128 39 207 128 128 217 49 128Z" fill="#F7FAFA"/>
  <path d="M49 128 96 88 116 108 89 128 116 156 98 179Z" fill="#18C7B6"/>
  <path d="M207 128 160 88 140 108 167 128 140 156 158 179Z" fill="#F2B84B"/>
  <path d="M86 82h26l16 52 16-52h26l-42 116Z" fill="#101318"/>
  <path d="M128 39 207 128 128 217 49 128Z" fill="none" stroke="#101318" stroke-width="6" stroke-linejoin="round" opacity=".94"/>
  <path d="M128 12 244 128 128 244 12 128Z" fill="none" stroke="#101318" stroke-width="8" stroke-linejoin="round"/>
</svg>
