<svg xmlns="http://www.w3.org/2000/svg" viewBox="0 0 560 132" role="img" aria-labelledby="title desc">
  <title id="title">Veil reverse horizontal logo</title>
  <desc id="desc">The Veil reverse horizontal logo lockup with aperture mark for dark backgrounds.</desc>
  <g transform="translate(14 14) scale(.40625)">
    <path d="M128 12 244 128 128 244 12 128Z" fill="#F7FAFA"/>
    <path d="M128 39 207 128 128 217 49 128Z" fill="#101318"/>
    <path d="M49 128 96 88 116 108 89 128 116 156 98 179Z" fill="#18C7B6"/>
    <path d="M207 128 160 88 140 108 167 128 140 156 158 179Z" fill="#F2B84B"/>
    <path d="M86 82h26l16 52 16-52h26l-42 116Z" fill="#F7FAFA"/>
    <path d="M128 39 207 128 128 217 49 128Z" fill="none" stroke="#F7FAFA" stroke-width="6" stroke-linejoin="round" opacity=".94"/>
    <path d="M128 12 244 128 128 244 12 128Z" fill="none" stroke="#F7FAFA" stroke-width="8" stroke-linejoin="round"/>
  </g>
  <text x="134" y="58" fill="#F7FAFA" font-family="Inter, Geist, Arial, sans-serif" font-size="44" font-weight="760" letter-spacing="0">Veil</text>
  <text x="136" y="91" fill="#D9DEE4" font-family="'Noto Sans SC', 'PingFang SC', 'Microsoft YaHei', sans-serif" font-size="21" font-weight="650" letter-spacing="1">预测所</text>
  <path d="M244 84h180" stroke="#68717E" stroke-width="2" stroke-linecap="round"/>
</svg>
